<svg xmlns="http://www.w3.org/2000/svg" xmlns:xlink="http://www.w3.org/1999/xlink" width="307" zoomAndPan="magnify" viewBox="0 0 230.25 76.499998" height="102" preserveAspectRatio="xMidYMid meet" version="1.2"><defs><clipPath id="7b612b2949"><path d="M 0.375 10.324219 L 55.695312 10.324219 L 55.695312 66.03125 L 0.375 66.03125 Z M 0.375 10.324219 "/></clipPath><clipPath id="434d56636e"><path d="M 13 23.183594 L 42.738281 23.183594 L 42.738281 53 L 13 53 Z M 13 23.183594 "/></clipPath><clipPath id="efa0976ec3"><path d="M 7.65625 37.132812 L 27.082031 17.660156 L 55.996094 46.644531 L 36.566406 66.121094 Z M 7.65625 37.132812 "/></clipPath><clipPath id="5cd83a654a"><path d="M 7.65625 37.132812 L 27.082031 17.660156 L 55.996094 46.644531 L 36.566406 66.121094 Z M 7.65625 37.132812 "/></clipPath><clipPath id="86d02963a8"><path d="M 36.773438 47.117188 L 45 47.117188 L 45 55 L 36.773438 55 Z M 36.773438 47.117188 "/></clipPath><clipPath id="fd044fdb20"><path d="M 7.65625 37.132812 L 27.082031 17.660156 L 55.996094 46.644531 L 36.566406 66.121094 Z M 7.65625 37.132812 "/></clipPath><clipPath id="f0601912db"><path d="M 7.65625 37.132812 L 27.082031 17.660156 L 55.996094 46.644531 L 36.566406 66.121094 Z M 7.65625 37.132812 "/></clipPath><clipPath id="d830eb3a8d"><path d="M 39 49 L 47 49 L 47 57.371094 L 39 57.371094 Z M 39 49 "/></clipPath><clipPath id="6d0a14ff26"><path d="M 7.65625 37.132812 L 27.082031 17.660156 L 55.996094 46.644531 L 36.566406 66.121094 Z M 7.65625 37.132812 "/></clipPath><clipPath id="54dd1b9ae6"><path d="M 7.65625 37.132812 L 27.082031 17.660156 L 55.996094 46.644531 L 36.566406 66.121094 Z M 7.65625 37.132812 "/></clipPath><clipPath id="8d90cb9f10"><path d="M 42.738281 53.097656 L 48.707031 53.097656 L 48.707031 59 L 42.738281 59 Z M 42.738281 53.097656 "/></clipPath><clipPath id="ccafc6062d"><path d="M 7.65625 37.132812 L 27.082031 17.660156 L 55.996094 46.644531 L 36.566406 66.121094 Z M 7.65625 37.132812 "/></clipPath><clipPath id="9b18392c87"><path d="M 7.65625 37.132812 L 27.082031 17.660156 L 55.996094 46.644531 L 36.566406 66.121094 Z M 7.65625 37.132812 "/></clipPath><clipPath id="c75441526e"><path d="M 221 39 L 229.128906 39 L 229.128906 47 L 221 47 Z M 221 39 "/></clipPath><clipPath id="a4c516385d"><path d="M 139 57 L 148 57 L 148 66.46875 L 139 66.46875 Z M 139 57 "/></clipPath><clipPath id="3915e848db"><path d="M 168 57 L 177 57 L 177 66.46875 L 168 66.46875 Z M 168 57 "/></clipPath></defs><g id="23e593c5db"><g clip-rule="nonzero" clip-path="url(#7b612b2949)"><path style=" stroke:none;fill-rule:nonzero;fill:#ffb23e;fill-opacity:1;" d="M 28.289062 10.324219 L 27.488281 10.324219 C 12.371094 10.324219 0.113281 22.613281 0.113281 37.78125 L 0.113281 38.582031 C 0.113281 53.738281 12.371094 66.03125 27.5 66.03125 L 55.542969 66.03125 C 55.617188 66.03125 55.675781 65.960938 55.675781 65.894531 L 55.675781 37.78125 C 55.675781 22.613281 43.417969 10.324219 28.289062 10.324219 Z M 28.289062 10.324219 "/></g><g clip-rule="nonzero" clip-path="url(#434d56636e)"><g clip-rule="nonzero" clip-path="url(#efa0976ec3)"><g clip-rule="nonzero" clip-path="url(#5cd83a654a)"><path style=" stroke:none;fill-rule:nonzero;fill:#ffffff;fill-opacity:1;" d="M 17.265625 27.519531 C 16.949219 27.835938 16.65625 28.164062 16.371094 28.511719 C 16.089844 28.855469 15.824219 29.214844 15.578125 29.585938 C 15.332031 29.957031 15.105469 30.335938 14.894531 30.730469 C 14.6875 31.125 14.496094 31.527344 14.328125 31.9375 C 14.15625 32.347656 14.007812 32.769531 13.878906 33.195312 C 13.75 33.621094 13.644531 34.054688 13.558594 34.488281 C 13.472656 34.925781 13.402344 35.367188 13.359375 35.8125 C 13.316406 36.253906 13.292969 36.699219 13.292969 37.148438 C 13.292969 37.589844 13.316406 38.035156 13.359375 38.480469 C 13.402344 38.921875 13.472656 39.363281 13.558594 39.800781 C 13.644531 40.238281 13.75 40.667969 13.878906 41.097656 C 14.007812 41.519531 14.15625 41.941406 14.328125 42.351562 C 14.496094 42.765625 14.6875 43.167969 14.894531 43.558594 C 15.105469 43.953125 15.332031 44.335938 15.578125 44.707031 C 15.824219 45.078125 16.089844 45.433594 16.371094 45.78125 C 16.65625 46.125 16.949219 46.457031 17.265625 46.769531 C 19.8125 49.324219 23.554688 49.875 26.851562 50.363281 C 27.414062 50.449219 27.972656 50.527344 28.519531 50.617188 C 29.59375 50.796875 30.589844 51.1875 31.503906 51.789062 C 31.902344 52.058594 32.332031 52.246094 32.800781 52.367188 C 33.261719 52.484375 33.730469 52.523438 34.210938 52.476562 C 34.6875 52.433594 35.144531 52.3125 35.578125 52.109375 C 36.011719 51.90625 36.398438 51.640625 36.742188 51.304688 L 40.984375 47.050781 C 41.320312 46.707031 41.585938 46.316406 41.789062 45.882812 C 41.988281 45.445312 42.109375 44.988281 42.152344 44.511719 C 42.195312 44.035156 42.160156 43.5625 42.042969 43.101562 C 41.925781 42.636719 41.734375 42.203125 41.472656 41.804688 C 40.871094 40.890625 40.480469 39.890625 40.300781 38.8125 C 40.210938 38.261719 40.128906 37.699219 40.050781 37.140625 C 39.558594 33.824219 39.011719 30.074219 36.464844 27.519531 C 36.148438 27.207031 35.820312 26.90625 35.476562 26.625 C 35.132812 26.34375 34.777344 26.078125 34.40625 25.832031 C 34.039062 25.585938 33.65625 25.355469 33.261719 25.144531 C 32.871094 24.9375 32.46875 24.746094 32.058594 24.578125 C 31.648438 24.40625 31.230469 24.257812 30.804688 24.125 C 30.378906 23.996094 29.949219 23.890625 29.511719 23.800781 C 29.074219 23.714844 28.636719 23.648438 28.195312 23.605469 C 27.753906 23.5625 27.3125 23.542969 26.863281 23.542969 C 26.421875 23.542969 25.976562 23.5625 25.535156 23.605469 C 25.09375 23.648438 24.652344 23.714844 24.21875 23.800781 C 23.78125 23.890625 23.351562 23.996094 22.925781 24.125 C 22.5 24.257812 22.082031 24.40625 21.667969 24.578125 C 21.261719 24.746094 20.855469 24.9375 20.46875 25.144531 C 20.074219 25.355469 19.695312 25.585938 19.324219 25.832031 C 18.953125 26.078125 18.597656 26.34375 18.253906 26.625 C 17.910156 26.90625 17.582031 27.207031 17.265625 27.519531 Z M 17.265625 27.519531 "/></g></g></g><g clip-rule="nonzero" clip-path="url(#86d02963a8)"><g clip-rule="nonzero" clip-path="url(#fd044fdb20)"><g clip-rule="nonzero" clip-path="url(#f0601912db)"><path style=" stroke:none;fill-rule:nonzero;fill:#ffffff;fill-opacity:1;" d="M 43.066406 47.371094 L 37.066406 53.386719 C 36.984375 53.464844 36.925781 53.554688 36.882812 53.664062 C 36.839844 53.765625 36.816406 53.875 36.816406 53.988281 C 36.816406 54.101562 36.839844 54.207031 36.882812 54.3125 C 36.925781 54.417969 36.984375 54.507812 37.066406 54.589844 C 37.144531 54.667969 37.234375 54.730469 37.339844 54.773438 C 37.445312 54.820312 37.550781 54.839844 37.664062 54.839844 C 37.777344 54.839844 37.882812 54.820312 37.992188 54.773438 C 38.09375 54.730469 38.183594 54.667969 38.265625 54.589844 L 44.265625 48.574219 C 44.34375 48.496094 44.40625 48.402344 44.449219 48.296875 C 44.492188 48.195312 44.515625 48.085938 44.515625 47.972656 C 44.515625 47.859375 44.492188 47.75 44.449219 47.648438 C 44.40625 47.542969 44.34375 47.449219 44.265625 47.371094 C 44.183594 47.289062 44.09375 47.230469 43.988281 47.1875 C 43.886719 47.144531 43.777344 47.121094 43.664062 47.121094 C 43.550781 47.121094 43.441406 47.144531 43.339844 47.1875 C 43.234375 47.230469 43.144531 47.292969 43.066406 47.371094 Z M 43.066406 47.371094 "/></g></g></g><g clip-rule="nonzero" clip-path="url(#d830eb3a8d)"><g clip-rule="nonzero" clip-path="url(#6d0a14ff26)"><g clip-rule="nonzero" clip-path="url(#54dd1b9ae6)"><path style=" stroke:none;fill-rule:nonzero;fill:#ffffff;fill-opacity:1;" d="M 45.464844 49.777344 L 39.464844 55.792969 C 39.386719 55.875 39.324219 55.964844 39.28125 56.066406 C 39.238281 56.175781 39.214844 56.28125 39.214844 56.394531 C 39.214844 56.507812 39.238281 56.613281 39.28125 56.71875 C 39.324219 56.824219 39.386719 56.914062 39.464844 56.996094 C 39.542969 57.074219 39.636719 57.136719 39.738281 57.179688 C 39.84375 57.222656 39.953125 57.246094 40.066406 57.246094 C 40.179688 57.246094 40.285156 57.222656 40.390625 57.179688 C 40.492188 57.136719 40.585938 57.074219 40.664062 56.996094 L 46.667969 50.980469 C 46.742188 50.898438 46.804688 50.808594 46.847656 50.707031 C 46.894531 50.601562 46.914062 50.492188 46.914062 50.378906 C 46.914062 50.265625 46.894531 50.15625 46.847656 50.054688 C 46.804688 49.949219 46.742188 49.855469 46.667969 49.777344 C 46.585938 49.695312 46.492188 49.636719 46.390625 49.59375 C 46.285156 49.550781 46.175781 49.527344 46.0625 49.527344 C 45.953125 49.527344 45.84375 49.550781 45.742188 49.59375 C 45.636719 49.636719 45.542969 49.695312 45.464844 49.777344 Z M 45.464844 49.777344 "/></g></g></g><g clip-rule="nonzero" clip-path="url(#8d90cb9f10)"><g clip-rule="nonzero" clip-path="url(#ccafc6062d)"><g clip-rule="nonzero" clip-path="url(#9b18392c87)"><path style=" stroke:none;fill-rule:nonzero;fill:#ffffff;fill-opacity:1;" d="M 46.667969 53.386719 L 43.066406 56.996094 C 42.988281 57.074219 42.921875 57.164062 42.878906 57.273438 C 42.835938 57.375 42.816406 57.484375 42.816406 57.597656 C 42.816406 57.710938 42.835938 57.816406 42.878906 57.921875 C 42.921875 58.027344 42.988281 58.117188 43.066406 58.199219 C 43.144531 58.277344 43.234375 58.339844 43.339844 58.382812 C 43.441406 58.425781 43.550781 58.449219 43.664062 58.449219 C 43.777344 58.449219 43.886719 58.425781 43.988281 58.382812 C 44.09375 58.339844 44.183594 58.277344 44.265625 58.199219 L 47.867188 54.589844 C 47.945312 54.507812 48.003906 54.417969 48.046875 54.3125 C 48.089844 54.207031 48.113281 54.101562 48.113281 53.988281 C 48.113281 53.875 48.089844 53.765625 48.046875 53.664062 C 48.003906 53.554688 47.945312 53.464844 47.867188 53.386719 C 47.785156 53.304688 47.691406 53.246094 47.589844 53.203125 C 47.484375 53.160156 47.378906 53.136719 47.265625 53.136719 C 47.152344 53.136719 47.042969 53.160156 46.9375 53.203125 C 46.835938 53.246094 46.742188 53.304688 46.667969 53.386719 Z M 46.667969 53.386719 "/></g></g></g><path style=" stroke:none;fill-rule:nonzero;fill:#041f3f;fill-opacity:1;" d="M 78.78125 27.757812 C 79.394531 26.753906 80.273438 25.941406 81.421875 25.328125 C 82.574219 24.710938 83.890625 24.40625 85.375 24.40625 C 87.140625 24.40625 88.738281 24.855469 90.171875 25.753906 C 91.609375 26.65625 92.742188 27.9375 93.570312 29.601562 C 94.402344 31.265625 94.820312 33.203125 94.820312 35.410156 C 94.820312 37.621094 94.402344 39.5625 93.570312 41.246094 C 92.742188 42.921875 91.609375 44.21875 90.171875 45.132812 C 88.738281 46.039062 87.140625 46.492188 85.375 46.492188 C 83.863281 46.492188 82.546875 46.195312 81.421875 45.597656 C 80.300781 44.996094 79.421875 44.191406 78.78125 43.183594 L 78.78125 46.1875 L 72.214844 46.1875 L 72.214844 17.699219 L 78.78125 17.699219 Z M 88.148438 35.410156 C 88.148438 33.773438 87.6875 32.484375 86.773438 31.550781 C 85.871094 30.609375 84.75 30.132812 83.417969 30.132812 C 82.113281 30.132812 81.007812 30.613281 80.101562 31.5625 C 79.195312 32.507812 78.742188 33.804688 78.742188 35.449219 C 78.742188 37.089844 79.195312 38.382812 80.101562 39.335938 C 81.007812 40.289062 82.113281 40.765625 83.417969 40.765625 C 84.722656 40.765625 85.835938 40.285156 86.761719 39.324219 C 87.683594 38.355469 88.148438 37.046875 88.148438 35.410156 Z M 88.148438 35.410156 "/><path style=" stroke:none;fill-rule:nonzero;fill:#041f3f;fill-opacity:1;" d="M 106.761719 46.492188 C 104.65625 46.492188 102.765625 46.046875 101.085938 45.144531 C 99.414062 44.246094 98.101562 42.964844 97.144531 41.300781 C 96.183594 39.636719 95.707031 37.6875 95.707031 35.449219 C 95.707031 33.242188 96.1875 31.304688 97.15625 29.625 C 98.132812 27.945312 99.464844 26.65625 101.152344 25.753906 C 102.839844 24.855469 104.730469 24.40625 106.828125 24.40625 C 108.933594 24.40625 110.828125 24.855469 112.515625 25.753906 C 114.203125 26.65625 115.53125 27.945312 116.5 29.625 C 117.476562 31.304688 117.964844 33.242188 117.964844 35.449219 C 117.964844 37.660156 117.472656 39.601562 116.484375 41.285156 C 115.5 42.960938 114.15625 44.246094 112.449219 45.144531 C 110.75 46.046875 108.855469 46.492188 106.761719 46.492188 Z M 106.761719 40.804688 C 108.015625 40.804688 109.078125 40.34375 109.957031 39.414062 C 110.84375 38.492188 111.289062 37.167969 111.289062 35.449219 C 111.289062 33.734375 110.859375 32.410156 110 31.484375 C 109.144531 30.558594 108.085938 30.09375 106.828125 30.09375 C 105.550781 30.09375 104.488281 30.554688 103.644531 31.46875 C 102.796875 32.378906 102.378906 33.707031 102.378906 35.449219 C 102.378906 37.167969 102.792969 38.492188 103.617188 39.414062 C 104.449219 40.34375 105.5 40.804688 106.761719 40.804688 Z M 106.761719 40.804688 "/><path style=" stroke:none;fill-rule:nonzero;fill:#041f3f;fill-opacity:1;" d="M 126.761719 28.292969 C 127.523438 27.109375 128.480469 26.179688 129.625 25.5 C 130.777344 24.824219 132.0625 24.484375 133.472656 24.484375 L 133.472656 31.441406 L 131.664062 31.441406 C 130.027344 31.441406 128.800781 31.800781 127.984375 32.511719 C 127.167969 33.214844 126.761719 34.453125 126.761719 36.222656 L 126.761719 46.1875 L 120.195312 46.1875 L 120.195312 24.710938 L 126.761719 24.710938 Z M 126.761719 28.292969 "/><path style=" stroke:none;fill-rule:nonzero;fill:#041f3f;fill-opacity:1;" d="M 134.050781 35.449219 C 134.050781 33.214844 134.503906 31.265625 135.40625 29.601562 C 136.3125 27.9375 137.578125 26.65625 139.203125 25.753906 C 140.828125 24.855469 142.695312 24.40625 144.800781 24.40625 C 147.480469 24.40625 149.722656 25.113281 151.527344 26.527344 C 153.335938 27.9375 154.523438 29.921875 155.082031 32.484375 L 148.101562 32.484375 C 147.507812 30.847656 146.363281 30.027344 144.679688 30.027344 C 143.480469 30.027344 142.519531 30.496094 141.800781 31.429688 C 141.082031 32.363281 140.722656 33.707031 140.722656 35.449219 C 140.722656 37.195312 141.082031 38.535156 141.800781 39.46875 C 142.519531 40.402344 143.480469 40.871094 144.679688 40.871094 C 146.363281 40.871094 147.507812 40.054688 148.101562 38.414062 L 155.082031 38.414062 C 154.523438 40.925781 153.332031 42.902344 151.511719 44.34375 C 149.691406 45.78125 147.453125 46.492188 144.800781 46.492188 C 142.695312 46.492188 140.828125 46.046875 139.203125 45.144531 C 137.578125 44.246094 136.3125 42.964844 135.40625 41.300781 C 134.503906 39.636719 134.050781 37.6875 134.050781 35.449219 Z M 134.050781 35.449219 "/><path style=" stroke:none;fill-rule:nonzero;fill:#041f3f;fill-opacity:1;" d="M 177.503906 35.101562 C 177.503906 35.714844 177.464844 36.359375 177.382812 37.027344 L 162.53125 37.027344 C 162.628906 38.359375 163.054688 39.382812 163.808594 40.082031 C 164.5625 40.789062 165.492188 41.140625 166.59375 41.140625 C 168.234375 41.140625 169.378906 40.449219 170.015625 39.070312 L 176.996094 39.070312 C 176.640625 40.476562 175.992188 41.746094 175.050781 42.875 C 174.121094 44.007812 172.949219 44.890625 171.535156 45.53125 C 170.128906 46.171875 168.558594 46.492188 166.820312 46.492188 C 164.722656 46.492188 162.855469 46.046875 161.210938 45.144531 C 159.578125 44.246094 158.296875 42.964844 157.375 41.300781 C 156.460938 39.636719 156.003906 37.6875 156.003906 35.449219 C 156.003906 33.214844 156.457031 31.265625 157.363281 29.601562 C 158.269531 27.9375 159.535156 26.65625 161.171875 25.753906 C 162.8125 24.855469 164.695312 24.40625 166.820312 24.40625 C 168.898438 24.40625 170.738281 24.84375 172.347656 25.714844 C 173.964844 26.589844 175.226562 27.832031 176.132812 29.453125 C 177.042969 31.066406 177.503906 32.949219 177.503906 35.101562 Z M 170.777344 33.367188 C 170.777344 32.238281 170.390625 31.34375 169.617188 30.683594 C 168.851562 30.015625 167.898438 29.679688 166.753906 29.679688 C 165.652344 29.679688 164.722656 30 163.96875 30.640625 C 163.214844 31.28125 162.746094 32.191406 162.570312 33.367188 Z M 170.777344 33.367188 "/><path style=" stroke:none;fill-rule:nonzero;fill:#041f3f;fill-opacity:1;" d="M 179.6875 17.699219 L 186.253906 17.699219 L 186.253906 46.1875 L 179.6875 46.1875 Z M 179.6875 17.699219 "/><path style=" stroke:none;fill-rule:nonzero;fill:#041f3f;fill-opacity:1;" d="M 189.742188 17.699219 L 196.308594 17.699219 L 196.308594 46.1875 L 189.742188 46.1875 Z M 189.742188 17.699219 "/><path style=" stroke:none;fill-rule:nonzero;fill:#041f3f;fill-opacity:1;" d="M 219.992188 35.101562 C 219.992188 35.714844 219.953125 36.359375 219.871094 37.027344 L 205.019531 37.027344 C 205.117188 38.359375 205.542969 39.382812 206.296875 40.082031 C 207.050781 40.789062 207.980469 41.140625 209.082031 41.140625 C 210.722656 41.140625 211.867188 40.449219 212.507812 39.070312 L 219.488281 39.070312 C 219.128906 40.476562 218.480469 41.746094 217.542969 42.875 C 216.609375 44.007812 215.4375 44.890625 214.023438 45.53125 C 212.621094 46.171875 211.046875 46.492188 209.308594 46.492188 C 207.210938 46.492188 205.34375 46.046875 203.699219 45.144531 C 202.066406 44.246094 200.789062 42.964844 199.863281 41.300781 C 198.949219 39.636719 198.492188 37.6875 198.492188 35.449219 C 198.492188 33.214844 198.945312 31.265625 199.851562 29.601562 C 200.757812 27.9375 202.027344 26.65625 203.660156 25.753906 C 205.304688 24.855469 207.183594 24.40625 209.308594 24.40625 C 211.386719 24.40625 213.230469 24.84375 214.835938 25.714844 C 216.453125 26.589844 217.714844 27.832031 218.621094 29.453125 C 219.53125 31.066406 219.992188 32.949219 219.992188 35.101562 Z M 213.265625 33.367188 C 213.265625 32.238281 212.878906 31.34375 212.105469 30.683594 C 211.339844 30.015625 210.386719 29.679688 209.242188 29.679688 C 208.140625 29.679688 207.210938 30 206.457031 30.640625 C 205.703125 31.28125 205.238281 32.191406 205.058594 33.367188 Z M 213.265625 33.367188 "/><g clip-rule="nonzero" clip-path="url(#c75441526e)"><path style=" stroke:none;fill-rule:nonzero;fill:#ffb23e;fill-opacity:1;" d="M 225.246094 46.492188 C 224.101562 46.492188 223.160156 46.15625 222.421875 45.480469 C 221.695312 44.792969 221.332031 43.953125 221.332031 42.953125 C 221.332031 41.933594 221.695312 41.070312 222.421875 40.378906 C 223.160156 39.683594 224.101562 39.335938 225.246094 39.335938 C 226.371094 39.335938 227.300781 39.683594 228.03125 40.378906 C 228.757812 41.070312 229.125 41.933594 229.125 42.953125 C 229.125 43.953125 228.757812 44.792969 228.03125 45.480469 C 227.300781 46.15625 226.371094 46.492188 225.246094 46.492188 Z M 225.246094 46.492188 "/></g><path style=" stroke:none;fill-rule:nonzero;fill:#041f3f;fill-opacity:1;" d="M 81.179688 58.0625 L 81.179688 65.941406 L 80.140625 65.941406 L 80.140625 60.066406 L 77.53125 65.941406 L 76.8125 65.941406 L 74.1875 60.066406 L 74.1875 65.941406 L 73.160156 65.941406 L 73.160156 58.0625 L 74.269531 58.0625 L 77.171875 64.582031 L 80.074219 58.0625 Z M 81.179688 58.0625 "/><path style=" stroke:none;fill-rule:nonzero;fill:#041f3f;fill-opacity:1;" d="M 89.242188 64.179688 L 85.789062 64.179688 L 85.152344 65.941406 L 84.058594 65.941406 L 86.921875 58.0625 L 88.109375 58.0625 L 90.957031 65.941406 L 89.867188 65.941406 Z M 88.933594 63.339844 L 87.507812 59.332031 L 86.082031 63.339844 Z M 88.933594 63.339844 "/><path style=" stroke:none;fill-rule:nonzero;fill:#041f3f;fill-opacity:1;" d="M 98 65.941406 L 96.125 62.699219 L 94.871094 62.699219 L 94.871094 65.941406 L 93.847656 65.941406 L 93.847656 58.011719 L 96.390625 58.011719 C 96.992188 58.011719 97.5 58.113281 97.910156 58.316406 C 98.316406 58.523438 98.621094 58.804688 98.828125 59.160156 C 99.03125 59.503906 99.132812 59.902344 99.132812 60.347656 C 99.132812 60.890625 98.976562 61.371094 98.667969 61.789062 C 98.355469 62.210938 97.886719 62.484375 97.257812 62.617188 L 99.242188 65.941406 Z M 94.871094 61.871094 L 96.390625 61.871094 C 96.949219 61.871094 97.367188 61.734375 97.640625 61.457031 C 97.925781 61.179688 98.070312 60.8125 98.070312 60.347656 C 98.070312 59.875 97.929688 59.511719 97.65625 59.25 C 97.378906 58.996094 96.957031 58.863281 96.390625 58.863281 L 94.871094 58.863281 Z M 94.871094 61.871094 "/><path style=" stroke:none;fill-rule:nonzero;fill:#041f3f;fill-opacity:1;" d="M 106.667969 65.941406 L 103.402344 62.324219 L 103.402344 65.941406 L 102.378906 65.941406 L 102.378906 58.011719 L 103.402344 58.011719 L 103.402344 61.683594 L 106.679688 58.011719 L 107.972656 58.011719 L 104.390625 61.988281 L 108.011719 65.941406 Z M 106.667969 65.941406 "/><path style=" stroke:none;fill-rule:nonzero;fill:#041f3f;fill-opacity:1;" d="M 111.835938 58.851562 L 111.835938 61.507812 L 114.726562 61.507812 L 114.726562 62.363281 L 111.835938 62.363281 L 111.835938 65.085938 L 115.058594 65.085938 L 115.058594 65.941406 L 110.808594 65.941406 L 110.808594 57.996094 L 115.058594 57.996094 L 115.058594 58.851562 Z M 111.835938 58.851562 "/><path style=" stroke:none;fill-rule:nonzero;fill:#041f3f;fill-opacity:1;" d="M 123.125 58.011719 L 123.125 58.851562 L 120.96875 58.851562 L 120.96875 65.941406 L 119.941406 65.941406 L 119.941406 58.851562 L 117.769531 58.851562 L 117.769531 58.011719 Z M 123.125 58.011719 "/><path style=" stroke:none;fill-rule:nonzero;fill:#041f3f;fill-opacity:1;" d="M 126.035156 58.011719 L 127.0625 58.011719 L 127.0625 65.941406 L 126.035156 65.941406 Z M 126.035156 58.011719 "/><path style=" stroke:none;fill-rule:nonzero;fill:#041f3f;fill-opacity:1;" d="M 136.683594 65.941406 L 135.644531 65.941406 L 131.488281 59.625 L 131.488281 65.941406 L 130.460938 65.941406 L 130.460938 57.996094 L 131.488281 57.996094 L 135.644531 64.300781 L 135.644531 57.996094 L 136.683594 57.996094 Z M 136.683594 65.941406 "/><g clip-rule="nonzero" clip-path="url(#a4c516385d)"><path style=" stroke:none;fill-rule:nonzero;fill:#041f3f;fill-opacity:1;" d="M 146.050781 60.308594 C 145.839844 59.847656 145.523438 59.488281 145.105469 59.238281 C 144.6875 58.980469 144.203125 58.851562 143.65625 58.851562 C 143.101562 58.851562 142.605469 58.980469 142.164062 59.238281 C 141.714844 59.488281 141.367188 59.851562 141.109375 60.332031 C 140.859375 60.808594 140.738281 61.355469 140.738281 61.976562 C 140.738281 62.601562 140.859375 63.148438 141.109375 63.617188 C 141.367188 64.082031 141.714844 64.445312 142.164062 64.699219 C 142.605469 64.949219 143.101562 65.074219 143.65625 65.074219 C 144.425781 65.074219 145.058594 64.84375 145.558594 64.378906 C 146.054688 63.917969 146.347656 63.296875 146.4375 62.511719 L 143.28125 62.511719 L 143.28125 61.667969 L 147.53125 61.667969 L 147.53125 62.457031 C 147.46875 63.117188 147.265625 63.71875 146.917969 64.261719 C 146.570312 64.792969 146.113281 65.222656 145.546875 65.542969 C 144.976562 65.855469 144.347656 66.007812 143.65625 66.007812 C 142.914062 66.007812 142.246094 65.84375 141.644531 65.5 C 141.035156 65.15625 140.558594 64.675781 140.203125 64.058594 C 139.859375 63.445312 139.683594 62.75 139.683594 61.976562 C 139.683594 61.203125 139.859375 60.507812 140.203125 59.894531 C 140.558594 59.273438 141.035156 58.785156 141.644531 58.4375 C 142.246094 58.089844 142.914062 57.917969 143.65625 57.917969 C 144.488281 57.917969 145.230469 58.125 145.878906 58.542969 C 146.523438 58.964844 146.996094 59.550781 147.289062 60.308594 Z M 146.050781 60.308594 "/></g><path style=" stroke:none;fill-rule:nonzero;fill:#041f3f;fill-opacity:1;" d="M 157.648438 58.011719 C 158.515625 58.011719 159.265625 58.175781 159.898438 58.503906 C 160.527344 58.824219 161.011719 59.285156 161.351562 59.878906 C 161.6875 60.476562 161.855469 61.179688 161.855469 61.988281 C 161.855469 62.8125 161.6875 63.519531 161.351562 64.113281 C 161.011719 64.699219 160.527344 65.15625 159.898438 65.476562 C 159.265625 65.789062 158.515625 65.941406 157.648438 65.941406 L 155.195312 65.941406 L 155.195312 58.011719 Z M 157.648438 65.085938 C 158.675781 65.085938 159.457031 64.816406 159.992188 64.273438 C 160.523438 63.730469 160.789062 62.972656 160.789062 61.988281 C 160.789062 61.011719 160.515625 60.246094 159.976562 59.691406 C 159.445312 59.132812 158.664062 58.851562 157.648438 58.851562 L 156.222656 58.851562 L 156.222656 65.085938 Z M 157.648438 65.085938 "/><path style=" stroke:none;fill-rule:nonzero;fill:#041f3f;fill-opacity:1;" d="M 164.851562 58.011719 L 165.878906 58.011719 L 165.878906 65.941406 L 164.851562 65.941406 Z M 164.851562 58.011719 "/><g clip-rule="nonzero" clip-path="url(#3915e848db)"><path style=" stroke:none;fill-rule:nonzero;fill:#041f3f;fill-opacity:1;" d="M 175.257812 60.308594 C 175.042969 59.847656 174.726562 59.488281 174.3125 59.238281 C 173.894531 58.980469 173.410156 58.851562 172.859375 58.851562 C 172.308594 58.851562 171.8125 58.980469 171.367188 59.238281 C 170.921875 59.488281 170.574219 59.851562 170.316406 60.332031 C 170.066406 60.808594 169.941406 61.355469 169.941406 61.976562 C 169.941406 62.601562 170.066406 63.148438 170.316406 63.617188 C 170.574219 64.082031 170.921875 64.445312 171.367188 64.699219 C 171.8125 64.949219 172.308594 65.074219 172.859375 65.074219 C 173.632812 65.074219 174.265625 64.84375 174.765625 64.378906 C 175.261719 63.917969 175.554688 63.296875 175.644531 62.511719 L 172.488281 62.511719 L 172.488281 61.667969 L 176.738281 61.667969 L 176.738281 62.457031 C 176.671875 63.117188 176.46875 63.71875 176.125 64.261719 C 175.777344 64.792969 175.316406 65.222656 174.75 65.542969 C 174.183594 65.855469 173.554688 66.007812 172.859375 66.007812 C 172.121094 66.007812 171.453125 65.84375 170.847656 65.5 C 170.242188 65.15625 169.761719 64.675781 169.410156 64.058594 C 169.0625 63.445312 168.890625 62.75 168.890625 61.976562 C 168.890625 61.203125 169.0625 60.507812 169.410156 59.894531 C 169.761719 59.273438 170.242188 58.785156 170.847656 58.4375 C 171.453125 58.089844 172.121094 57.917969 172.859375 57.917969 C 173.691406 57.917969 174.433594 58.125 175.085938 58.542969 C 175.730469 58.964844 176.203125 59.550781 176.496094 60.308594 Z M 175.257812 60.308594 "/></g><path style=" stroke:none;fill-rule:nonzero;fill:#041f3f;fill-opacity:1;" d="M 179.738281 58.011719 L 180.761719 58.011719 L 180.761719 65.941406 L 179.738281 65.941406 Z M 179.738281 58.011719 "/><path style=" stroke:none;fill-rule:nonzero;fill:#041f3f;fill-opacity:1;" d="M 189.027344 58.011719 L 189.027344 58.851562 L 186.867188 58.851562 L 186.867188 65.941406 L 185.84375 65.941406 L 185.84375 58.851562 L 183.671875 58.851562 L 183.671875 58.011719 Z M 189.027344 58.011719 "/><path style=" stroke:none;fill-rule:nonzero;fill:#041f3f;fill-opacity:1;" d="M 196.613281 64.179688 L 193.160156 64.179688 L 192.523438 65.941406 L 191.429688 65.941406 L 194.292969 58.0625 L 195.480469 58.0625 L 198.328125 65.941406 L 197.238281 65.941406 Z M 196.304688 63.339844 L 194.878906 59.332031 L 193.453125 63.339844 Z M 196.304688 63.339844 "/><path style=" stroke:none;fill-rule:nonzero;fill:#041f3f;fill-opacity:1;" d="M 202.242188 65.101562 L 205.011719 65.101562 L 205.011719 65.941406 L 201.21875 65.941406 L 201.21875 58.011719 L 202.242188 58.011719 Z M 202.242188 65.101562 "/></g></svg>