<svg xmlns="http://www.w3.org/2000/svg" xmlns:xlink="http://www.w3.org/1999/xlink" width="409" zoomAndPan="magnify" viewBox="0 0 306.75 101.999999" height="136" preserveAspectRatio="xMidYMid meet" version="1.2"><defs><clipPath id="5d6097b8bb"><path d="M 0 23.953125 L 65.195312 23.953125 L 65.195312 89.128906 L 0 89.128906 Z M 0 23.953125 "/></clipPath><clipPath id="a783436018"><path d="M 15 39 L 50 39 L 50 74 L 15 74 Z M 15 39 "/></clipPath><clipPath id="5d2e0634d5"><path d="M 8.847656 55.320312 L 31.632812 32.535156 L 65.546875 66.449219 L 42.757812 89.234375 Z M 8.847656 55.320312 "/></clipPath><clipPath id="32e2f81bb1"><path d="M 8.847656 55.320312 L 31.632812 32.535156 L 65.546875 66.449219 L 42.757812 89.234375 Z M 8.847656 55.320312 "/></clipPath><clipPath id="5d26571f90"><path d="M 43 67 L 53 67 L 53 77 L 43 77 Z M 43 67 "/></clipPath><clipPath id="7605e247ca"><path d="M 8.847656 55.320312 L 31.632812 32.535156 L 65.546875 66.449219 L 42.757812 89.234375 Z M 8.847656 55.320312 "/></clipPath><clipPath id="67fecc6556"><path d="M 8.847656 55.320312 L 31.632812 32.535156 L 65.546875 66.449219 L 42.757812 89.234375 Z M 8.847656 55.320312 "/></clipPath><clipPath id="63836f2a29"><path d="M 45 69 L 55 69 L 55 79 L 45 79 Z M 45 69 "/></clipPath><clipPath id="9569c64e9b"><path d="M 8.847656 55.320312 L 31.632812 32.535156 L 65.546875 66.449219 L 42.757812 89.234375 Z M 8.847656 55.320312 "/></clipPath><clipPath id="f2ad08d403"><path d="M 8.847656 55.320312 L 31.632812 32.535156 L 65.546875 66.449219 L 42.757812 89.234375 Z M 8.847656 55.320312 "/></clipPath><clipPath id="7eefe9f9f5"><path d="M 50 74 L 57 74 L 57 81 L 50 81 Z M 50 74 "/></clipPath><clipPath id="77d6008410"><path d="M 8.847656 55.320312 L 31.632812 32.535156 L 65.546875 66.449219 L 42.757812 89.234375 Z M 8.847656 55.320312 "/></clipPath><clipPath id="6f924569f0"><path d="M 8.847656 55.320312 L 31.632812 32.535156 L 65.546875 66.449219 L 42.757812 89.234375 Z M 8.847656 55.320312 "/></clipPath></defs><g id="ee244958ba"><g clip-rule="nonzero" clip-path="url(#5d6097b8bb)"><path style=" stroke:none;fill-rule:nonzero;fill:#ffb23e;fill-opacity:1;" d="M 33.050781 23.953125 L 32.109375 23.953125 C 14.378906 23.953125 0 38.332031 0 56.078125 L 0 57.015625 C 0 74.746094 14.378906 89.128906 32.125 89.128906 L 65.015625 89.128906 C 65.105469 89.128906 65.171875 89.046875 65.171875 88.96875 L 65.171875 56.078125 C 65.171875 38.332031 50.792969 23.953125 33.050781 23.953125 Z M 33.050781 23.953125 "/></g><g clip-rule="nonzero" clip-path="url(#a783436018)"><g clip-rule="nonzero" clip-path="url(#5d2e0634d5)"><g clip-rule="nonzero" clip-path="url(#32e2f81bb1)"><path style=" stroke:none;fill-rule:nonzero;fill:#ffffff;fill-opacity:1;" d="M 20.117188 44.074219 C 19.75 44.441406 19.402344 44.828125 19.070312 45.234375 C 18.742188 45.636719 18.429688 46.054688 18.140625 46.488281 C 17.851562 46.921875 17.585938 47.367188 17.339844 47.828125 C 17.09375 48.289062 16.871094 48.761719 16.671875 49.242188 C 16.472656 49.722656 16.296875 50.214844 16.148438 50.710938 C 15.996094 51.210938 15.871094 51.71875 15.769531 52.226562 C 15.667969 52.738281 15.589844 53.253906 15.539062 53.773438 C 15.488281 54.292969 15.460938 54.8125 15.460938 55.335938 C 15.460938 55.855469 15.488281 56.375 15.539062 56.894531 C 15.589844 57.414062 15.667969 57.929688 15.769531 58.441406 C 15.871094 58.953125 15.996094 59.457031 16.148438 59.957031 C 16.296875 60.453125 16.472656 60.945312 16.671875 61.425781 C 16.871094 61.910156 17.09375 62.378906 17.339844 62.839844 C 17.585938 63.300781 17.851562 63.746094 18.140625 64.179688 C 18.429688 64.613281 18.742188 65.03125 19.070312 65.4375 C 19.402344 65.839844 19.75 66.226562 20.117188 66.59375 C 23.105469 69.582031 27.496094 70.226562 31.363281 70.800781 C 32.023438 70.898438 32.679688 70.992188 33.320312 71.097656 C 34.582031 71.308594 35.75 71.765625 36.820312 72.46875 C 37.289062 72.78125 37.792969 73.003906 38.339844 73.144531 C 38.882812 73.28125 39.433594 73.324219 39.996094 73.273438 C 40.554688 73.222656 41.089844 73.078125 41.597656 72.84375 C 42.109375 72.605469 42.5625 72.292969 42.964844 71.898438 L 47.941406 66.921875 C 48.335938 66.519531 48.648438 66.0625 48.882812 65.554688 C 49.117188 65.046875 49.261719 64.511719 49.3125 63.953125 C 49.363281 63.394531 49.320312 62.84375 49.183594 62.300781 C 49.046875 61.757812 48.820312 61.253906 48.511719 60.785156 C 47.808594 59.714844 47.351562 58.546875 47.140625 57.285156 C 47.03125 56.640625 46.9375 55.984375 46.84375 55.328125 C 46.269531 51.449219 45.628906 47.0625 42.640625 44.074219 C 42.269531 43.707031 41.882812 43.355469 41.480469 43.027344 C 41.078125 42.695312 40.660156 42.386719 40.226562 42.097656 C 39.792969 41.808594 39.34375 41.539062 38.882812 41.292969 C 38.425781 41.050781 37.953125 40.828125 37.472656 40.628906 C 36.988281 40.429688 36.5 40.253906 36 40.101562 C 35.5 39.949219 34.996094 39.824219 34.484375 39.722656 C 33.972656 39.621094 33.457031 39.542969 32.941406 39.492188 C 32.421875 39.441406 31.902344 39.417969 31.378906 39.417969 C 30.859375 39.417969 30.335938 39.441406 29.820312 39.492188 C 29.300781 39.542969 28.785156 39.621094 28.273438 39.722656 C 27.761719 39.824219 27.257812 39.949219 26.757812 40.101562 C 26.257812 40.253906 25.769531 40.429688 25.285156 40.628906 C 24.804688 40.828125 24.332031 41.050781 23.875 41.292969 C 23.414062 41.539062 22.96875 41.808594 22.535156 42.097656 C 22.097656 42.386719 21.679688 42.695312 21.277344 43.027344 C 20.875 43.355469 20.488281 43.707031 20.117188 44.074219 Z M 20.117188 44.074219 "/></g></g></g><g clip-rule="nonzero" clip-path="url(#5d26571f90)"><g clip-rule="nonzero" clip-path="url(#7605e247ca)"><g clip-rule="nonzero" clip-path="url(#67fecc6556)"><path style=" stroke:none;fill-rule:nonzero;fill:#ffffff;fill-opacity:1;" d="M 50.382812 67.296875 L 43.34375 74.335938 C 43.25 74.429688 43.179688 74.535156 43.128906 74.660156 C 43.078125 74.78125 43.050781 74.90625 43.050781 75.039062 C 43.050781 75.171875 43.078125 75.296875 43.128906 75.421875 C 43.179688 75.542969 43.25 75.648438 43.34375 75.742188 C 43.4375 75.835938 43.542969 75.910156 43.667969 75.960938 C 43.789062 76.011719 43.914062 76.035156 44.046875 76.035156 C 44.179688 76.035156 44.304688 76.011719 44.429688 75.960938 C 44.550781 75.910156 44.65625 75.835938 44.75 75.742188 L 51.789062 68.707031 C 51.882812 68.613281 51.953125 68.503906 52.003906 68.382812 C 52.054688 68.261719 52.082031 68.132812 52.082031 68.003906 C 52.082031 67.871094 52.054688 67.742188 52.003906 67.621094 C 51.953125 67.5 51.882812 67.390625 51.789062 67.296875 C 51.695312 67.203125 51.585938 67.132812 51.464844 67.082031 C 51.34375 67.03125 51.21875 67.007812 51.085938 67.007812 C 50.953125 67.007812 50.824219 67.03125 50.703125 67.082031 C 50.582031 67.132812 50.472656 67.207031 50.382812 67.296875 Z M 50.382812 67.296875 "/></g></g></g><g clip-rule="nonzero" clip-path="url(#63836f2a29)"><g clip-rule="nonzero" clip-path="url(#9569c64e9b)"><g clip-rule="nonzero" clip-path="url(#f2ad08d403)"><path style=" stroke:none;fill-rule:nonzero;fill:#ffffff;fill-opacity:1;" d="M 53.195312 70.113281 L 46.160156 77.152344 C 46.066406 77.246094 45.992188 77.351562 45.941406 77.472656 C 45.890625 77.597656 45.867188 77.722656 45.867188 77.855469 C 45.867188 77.988281 45.890625 78.113281 45.941406 78.234375 C 45.992188 78.359375 46.066406 78.464844 46.160156 78.558594 C 46.25 78.652344 46.359375 78.722656 46.480469 78.773438 C 46.601562 78.824219 46.730469 78.851562 46.863281 78.851562 C 46.996094 78.851562 47.121094 78.824219 47.242188 78.773438 C 47.363281 78.722656 47.472656 78.652344 47.566406 78.558594 L 54.605469 71.519531 C 54.695312 71.425781 54.769531 71.320312 54.820312 71.199219 C 54.871094 71.078125 54.894531 70.949219 54.894531 70.816406 C 54.894531 70.683594 54.871094 70.558594 54.820312 70.4375 C 54.769531 70.3125 54.695312 70.207031 54.605469 70.113281 C 54.511719 70.019531 54.402344 69.949219 54.28125 69.898438 C 54.160156 69.847656 54.03125 69.820312 53.898438 69.820312 C 53.769531 69.820312 53.640625 69.847656 53.519531 69.898438 C 53.398438 69.949219 53.289062 70.019531 53.195312 70.113281 Z M 53.195312 70.113281 "/></g></g></g><g clip-rule="nonzero" clip-path="url(#7eefe9f9f5)"><g clip-rule="nonzero" clip-path="url(#77d6008410)"><g clip-rule="nonzero" clip-path="url(#6f924569f0)"><path style=" stroke:none;fill-rule:nonzero;fill:#ffffff;fill-opacity:1;" d="M 54.605469 74.335938 L 50.382812 78.558594 C 50.289062 78.652344 50.214844 78.757812 50.164062 78.882812 C 50.113281 79.003906 50.089844 79.128906 50.089844 79.261719 C 50.089844 79.394531 50.113281 79.519531 50.164062 79.644531 C 50.214844 79.765625 50.289062 79.871094 50.382812 79.964844 C 50.472656 80.058594 50.582031 80.132812 50.703125 80.183594 C 50.824219 80.234375 50.953125 80.257812 51.085938 80.257812 C 51.21875 80.257812 51.34375 80.234375 51.464844 80.183594 C 51.585938 80.132812 51.695312 80.058594 51.789062 79.964844 L 56.011719 75.742188 C 56.105469 75.648438 56.175781 75.542969 56.226562 75.421875 C 56.277344 75.296875 56.304688 75.171875 56.304688 75.039062 C 56.304688 74.90625 56.277344 74.78125 56.226562 74.660156 C 56.175781 74.535156 56.105469 74.429688 56.011719 74.335938 C 55.917969 74.242188 55.808594 74.171875 55.6875 74.121094 C 55.566406 74.070312 55.441406 74.042969 55.308594 74.042969 C 55.175781 74.042969 55.046875 74.070312 54.925781 74.121094 C 54.804688 74.171875 54.695312 74.242188 54.605469 74.335938 Z M 54.605469 74.335938 "/></g></g></g><g style="fill:#041f3f;fill-opacity:1;"><g transform="translate(81.777136, 65.912616)"><path style="stroke:none" d="M 10.5 -21.5625 C 11.21875 -22.738281 12.25 -23.6875 13.59375 -24.40625 C 14.945312 -25.125 16.492188 -25.484375 18.234375 -25.484375 C 20.304688 -25.484375 22.179688 -24.957031 23.859375 -23.90625 C 25.546875 -22.851562 26.875 -21.351562 27.84375 -19.40625 C 28.820312 -17.457031 29.3125 -15.191406 29.3125 -12.609375 C 29.3125 -10.023438 28.820312 -7.75 27.84375 -5.78125 C 26.875 -3.820312 25.546875 -2.304688 23.859375 -1.234375 C 22.179688 -0.171875 20.304688 0.359375 18.234375 0.359375 C 16.460938 0.359375 14.914062 0.0078125 13.59375 -0.6875 C 12.28125 -1.394531 11.25 -2.335938 10.5 -3.515625 L 10.5 0 L 2.796875 0 L 2.796875 -33.328125 L 10.5 -33.328125 Z M 21.484375 -12.609375 C 21.484375 -14.523438 20.945312 -16.03125 19.875 -17.125 C 18.8125 -18.226562 17.5 -18.78125 15.9375 -18.78125 C 14.40625 -18.78125 13.109375 -18.222656 12.046875 -17.109375 C 10.984375 -16.003906 10.453125 -14.488281 10.453125 -12.5625 C 10.453125 -10.644531 10.984375 -9.128906 12.046875 -8.015625 C 13.109375 -6.898438 14.40625 -6.34375 15.9375 -6.34375 C 17.46875 -6.34375 18.773438 -6.90625 19.859375 -8.03125 C 20.941406 -9.164062 21.484375 -10.691406 21.484375 -12.609375 Z M 21.484375 -12.609375 "/></g></g><g style="fill:#041f3f;fill-opacity:1;"><g transform="translate(110.860952, 65.912616)"><path style="stroke:none" d="M 14.234375 0.359375 C 11.765625 0.359375 9.546875 -0.164062 7.578125 -1.21875 C 5.617188 -2.269531 4.078125 -3.769531 2.953125 -5.71875 C 1.828125 -7.664062 1.265625 -9.945312 1.265625 -12.5625 C 1.265625 -15.144531 1.832031 -17.414062 2.96875 -19.375 C 4.113281 -21.34375 5.675781 -22.851562 7.65625 -23.90625 C 9.632812 -24.957031 11.851562 -25.484375 14.3125 -25.484375 C 16.78125 -25.484375 19.003906 -24.957031 20.984375 -23.90625 C 22.960938 -22.851562 24.519531 -21.34375 25.65625 -19.375 C 26.800781 -17.414062 27.375 -15.144531 27.375 -12.5625 C 27.375 -9.976562 26.796875 -7.703125 25.640625 -5.734375 C 24.484375 -3.773438 22.90625 -2.269531 20.90625 -1.21875 C 18.914062 -0.164062 16.691406 0.359375 14.234375 0.359375 Z M 14.234375 -6.296875 C 15.703125 -6.296875 16.953125 -6.835938 17.984375 -7.921875 C 19.023438 -9.003906 19.546875 -10.550781 19.546875 -12.5625 C 19.546875 -14.570312 19.039062 -16.117188 18.03125 -17.203125 C 17.03125 -18.285156 15.789062 -18.828125 14.3125 -18.828125 C 12.8125 -18.828125 11.566406 -18.289062 10.578125 -17.21875 C 9.585938 -16.15625 9.09375 -14.601562 9.09375 -12.5625 C 9.09375 -10.550781 9.578125 -9.003906 10.546875 -7.921875 C 11.523438 -6.835938 12.753906 -6.296875 14.234375 -6.296875 Z M 14.234375 -6.296875 "/></g></g><g style="fill:#041f3f;fill-opacity:1;"><g transform="translate(138.053846, 65.912616)"><path style="stroke:none" d="M 10.5 -20.9375 C 11.394531 -22.320312 12.515625 -23.410156 13.859375 -24.203125 C 15.210938 -24.992188 16.71875 -25.390625 18.375 -25.390625 L 18.375 -17.25 L 16.25 -17.25 C 14.332031 -17.25 12.894531 -16.832031 11.9375 -16 C 10.976562 -15.175781 10.5 -13.726562 10.5 -11.65625 L 10.5 0 L 2.796875 0 L 2.796875 -25.125 L 10.5 -25.125 Z M 10.5 -20.9375 "/></g></g><g style="fill:#041f3f;fill-opacity:1;"><g transform="translate(155.837158, 65.912616)"><path style="stroke:none" d="M 1.265625 -12.5625 C 1.265625 -15.175781 1.796875 -17.457031 2.859375 -19.40625 C 3.921875 -21.351562 5.40625 -22.851562 7.3125 -23.90625 C 9.21875 -24.957031 11.40625 -25.484375 13.875 -25.484375 C 17.019531 -25.484375 19.648438 -24.65625 21.765625 -23 C 23.890625 -21.351562 25.28125 -19.03125 25.9375 -16.03125 L 17.75 -16.03125 C 17.050781 -17.945312 15.710938 -18.90625 13.734375 -18.90625 C 12.328125 -18.90625 11.203125 -18.359375 10.359375 -17.265625 C 9.515625 -16.171875 9.09375 -14.601562 9.09375 -12.5625 C 9.09375 -10.519531 9.515625 -8.953125 10.359375 -7.859375 C 11.203125 -6.765625 12.328125 -6.21875 13.734375 -6.21875 C 15.710938 -6.21875 17.050781 -7.175781 17.75 -9.09375 L 25.9375 -9.09375 C 25.28125 -6.15625 23.882812 -3.84375 21.75 -2.15625 C 19.613281 -0.476562 16.988281 0.359375 13.875 0.359375 C 11.40625 0.359375 9.21875 -0.164062 7.3125 -1.21875 C 5.40625 -2.269531 3.921875 -3.769531 2.859375 -5.71875 C 1.796875 -7.664062 1.265625 -9.945312 1.265625 -12.5625 Z M 1.265625 -12.5625 "/></g></g><g style="fill:#041f3f;fill-opacity:1;"><g transform="translate(181.589352, 65.912616)"><path style="stroke:none" d="M 26.484375 -12.96875 C 26.484375 -12.25 26.4375 -11.5 26.34375 -10.71875 L 8.921875 -10.71875 C 9.035156 -9.15625 9.535156 -7.960938 10.421875 -7.140625 C 11.304688 -6.316406 12.394531 -5.90625 13.6875 -5.90625 C 15.613281 -5.90625 16.953125 -6.710938 17.703125 -8.328125 L 25.890625 -8.328125 C 25.472656 -6.679688 24.710938 -5.195312 23.609375 -3.875 C 22.515625 -2.550781 21.140625 -1.515625 19.484375 -0.765625 C 17.835938 -0.015625 15.992188 0.359375 13.953125 0.359375 C 11.492188 0.359375 9.300781 -0.164062 7.375 -1.21875 C 5.457031 -2.269531 3.957031 -3.769531 2.875 -5.71875 C 1.800781 -7.664062 1.265625 -9.945312 1.265625 -12.5625 C 1.265625 -15.175781 1.796875 -17.457031 2.859375 -19.40625 C 3.921875 -21.351562 5.410156 -22.851562 7.328125 -23.90625 C 9.253906 -24.957031 11.460938 -25.484375 13.953125 -25.484375 C 16.390625 -25.484375 18.550781 -24.972656 20.4375 -23.953125 C 22.332031 -22.929688 23.8125 -21.472656 24.875 -19.578125 C 25.945312 -17.691406 26.484375 -15.488281 26.484375 -12.96875 Z M 18.59375 -15 C 18.59375 -16.320312 18.140625 -17.367188 17.234375 -18.140625 C 16.335938 -18.921875 15.21875 -19.3125 13.875 -19.3125 C 12.582031 -19.3125 11.492188 -18.9375 10.609375 -18.1875 C 9.722656 -17.4375 9.175781 -16.375 8.96875 -15 Z M 18.59375 -15 "/></g></g><g style="fill:#041f3f;fill-opacity:1;"><g transform="translate(207.836785, 65.912616)"><path style="stroke:none" d="M 10.5 -33.328125 L 10.5 0 L 2.796875 0 L 2.796875 -33.328125 Z M 10.5 -33.328125 "/></g></g><g style="fill:#041f3f;fill-opacity:1;"><g transform="translate(219.632187, 65.912616)"><path style="stroke:none" d="M 10.5 -33.328125 L 10.5 0 L 2.796875 0 L 2.796875 -33.328125 Z M 10.5 -33.328125 "/></g></g><g style="fill:#041f3f;fill-opacity:1;"><g transform="translate(231.427588, 65.912616)"><path style="stroke:none" d="M 26.484375 -12.96875 C 26.484375 -12.25 26.4375 -11.5 26.34375 -10.71875 L 8.921875 -10.71875 C 9.035156 -9.15625 9.535156 -7.960938 10.421875 -7.140625 C 11.304688 -6.316406 12.394531 -5.90625 13.6875 -5.90625 C 15.613281 -5.90625 16.953125 -6.710938 17.703125 -8.328125 L 25.890625 -8.328125 C 25.472656 -6.679688 24.710938 -5.195312 23.609375 -3.875 C 22.515625 -2.550781 21.140625 -1.515625 19.484375 -0.765625 C 17.835938 -0.015625 15.992188 0.359375 13.953125 0.359375 C 11.492188 0.359375 9.300781 -0.164062 7.375 -1.21875 C 5.457031 -2.269531 3.957031 -3.769531 2.875 -5.71875 C 1.800781 -7.664062 1.265625 -9.945312 1.265625 -12.5625 C 1.265625 -15.175781 1.796875 -17.457031 2.859375 -19.40625 C 3.921875 -21.351562 5.410156 -22.851562 7.328125 -23.90625 C 9.253906 -24.957031 11.460938 -25.484375 13.953125 -25.484375 C 16.390625 -25.484375 18.550781 -24.972656 20.4375 -23.953125 C 22.332031 -22.929688 23.8125 -21.472656 24.875 -19.578125 C 25.945312 -17.691406 26.484375 -15.488281 26.484375 -12.96875 Z M 18.59375 -15 C 18.59375 -16.320312 18.140625 -17.367188 17.234375 -18.140625 C 16.335938 -18.921875 15.21875 -19.3125 13.875 -19.3125 C 12.582031 -19.3125 11.492188 -18.9375 10.609375 -18.1875 C 9.722656 -17.4375 9.175781 -16.375 8.96875 -15 Z M 18.59375 -15 "/></g></g><g style="fill:#ffb23e;fill-opacity:1;"><g transform="translate(257.68455, 65.912616)"><path style="stroke:none" d="M 6.390625 0.359375 C 5.046875 0.359375 3.941406 -0.0351562 3.078125 -0.828125 C 2.222656 -1.628906 1.796875 -2.613281 1.796875 -3.78125 C 1.796875 -4.976562 2.222656 -5.984375 3.078125 -6.796875 C 3.941406 -7.609375 5.046875 -8.015625 6.390625 -8.015625 C 7.710938 -8.015625 8.800781 -7.609375 9.65625 -6.796875 C 10.507812 -5.984375 10.9375 -4.976562 10.9375 -3.78125 C 10.9375 -2.613281 10.507812 -1.628906 9.65625 -0.828125 C 8.800781 -0.0351562 7.710938 0.359375 6.390625 0.359375 Z M 6.390625 0.359375 "/></g></g><g style="fill:#041f3f;fill-opacity:1;"><g transform="translate(84.652858, 89.026708)"><path style="stroke:none" d="M 10.4375 -9.21875 L 10.4375 0 L 9.21875 0 L 9.21875 -6.875 L 6.15625 0 L 5.3125 0 L 2.234375 -6.875 L 2.234375 0 L 1.03125 0 L 1.03125 -9.21875 L 2.328125 -9.21875 L 5.734375 -1.59375 L 9.140625 -9.21875 Z M 10.4375 -9.21875 "/></g></g><g style="fill:#041f3f;fill-opacity:1;"><g transform="translate(98.027782, 89.026708)"><path style="stroke:none" d="M 6.515625 -2.0625 L 2.46875 -2.0625 L 1.71875 0 L 0.4375 0 L 3.796875 -9.21875 L 5.1875 -9.21875 L 8.53125 0 L 7.25 0 Z M 6.15625 -3.046875 L 4.484375 -7.734375 L 2.8125 -3.046875 Z M 6.15625 -3.046875 "/></g></g><g style="fill:#041f3f;fill-opacity:1;"><g transform="translate(108.914281, 89.026708)"><path style="stroke:none" d="M 5.90625 0 L 3.703125 -3.796875 L 2.234375 -3.796875 L 2.234375 0 L 1.03125 0 L 1.03125 -9.28125 L 4.015625 -9.28125 C 4.722656 -9.28125 5.316406 -9.160156 5.796875 -8.921875 C 6.273438 -8.679688 6.632812 -8.351562 6.875 -7.9375 C 7.113281 -7.53125 7.234375 -7.066406 7.234375 -6.546875 C 7.234375 -5.910156 7.050781 -5.347656 6.6875 -4.859375 C 6.320312 -4.367188 5.769531 -4.046875 5.03125 -3.890625 L 7.359375 0 Z M 2.234375 -4.765625 L 4.015625 -4.765625 C 4.671875 -4.765625 5.160156 -4.925781 5.484375 -5.25 C 5.816406 -5.570312 5.984375 -6.003906 5.984375 -6.546875 C 5.984375 -7.097656 5.820312 -7.523438 5.5 -7.828125 C 5.175781 -8.128906 4.679688 -8.28125 4.015625 -8.28125 L 2.234375 -8.28125 Z M 2.234375 -4.765625 "/></g></g><g style="fill:#041f3f;fill-opacity:1;"><g transform="translate(118.922511, 89.026708)"><path style="stroke:none" d="M 6.0625 0 L 2.234375 -4.234375 L 2.234375 0 L 1.03125 0 L 1.03125 -9.28125 L 2.234375 -9.28125 L 2.234375 -4.984375 L 6.078125 -9.28125 L 7.59375 -9.28125 L 3.390625 -4.625 L 7.640625 0 Z M 6.0625 0 "/></g></g><g style="fill:#041f3f;fill-opacity:1;"><g transform="translate(128.810981, 89.026708)"><path style="stroke:none" d="M 2.234375 -8.296875 L 2.234375 -5.1875 L 5.625 -5.1875 L 5.625 -4.1875 L 2.234375 -4.1875 L 2.234375 -1 L 6.015625 -1 L 6.015625 0 L 1.03125 0 L 1.03125 -9.296875 L 6.015625 -9.296875 L 6.015625 -8.296875 Z M 2.234375 -8.296875 "/></g></g><g style="fill:#041f3f;fill-opacity:1;"><g transform="translate(137.555037, 89.026708)"><path style="stroke:none" d="M 6.734375 -9.28125 L 6.734375 -8.296875 L 4.203125 -8.296875 L 4.203125 0 L 3 0 L 3 -8.296875 L 0.453125 -8.296875 L 0.453125 -9.28125 Z M 6.734375 -9.28125 "/></g></g><g style="fill:#041f3f;fill-opacity:1;"><g transform="translate(146.671688, 89.026708)"><path style="stroke:none" d="M 2.234375 -9.28125 L 2.234375 0 L 1.03125 0 L 1.03125 -9.28125 Z M 2.234375 -9.28125 "/></g></g><g style="fill:#041f3f;fill-opacity:1;"><g transform="translate(151.862751, 89.026708)"><path style="stroke:none" d="M 8.328125 0 L 7.109375 0 L 2.234375 -7.390625 L 2.234375 0 L 1.03125 0 L 1.03125 -9.296875 L 2.234375 -9.296875 L 7.109375 -1.921875 L 7.109375 -9.296875 L 8.328125 -9.296875 Z M 8.328125 0 "/></g></g><g style="fill:#041f3f;fill-opacity:1;"><g transform="translate(163.135154, 89.026708)"><path style="stroke:none" d="M 8.046875 -6.59375 C 7.796875 -7.132812 7.425781 -7.550781 6.9375 -7.84375 C 6.445312 -8.144531 5.878906 -8.296875 5.234375 -8.296875 C 4.585938 -8.296875 4.003906 -8.144531 3.484375 -7.84375 C 2.960938 -7.550781 2.550781 -7.125 2.25 -6.5625 C 1.957031 -6.007812 1.8125 -5.367188 1.8125 -4.640625 C 1.8125 -3.910156 1.957031 -3.269531 2.25 -2.71875 C 2.550781 -2.175781 2.960938 -1.753906 3.484375 -1.453125 C 4.003906 -1.160156 4.585938 -1.015625 5.234375 -1.015625 C 6.140625 -1.015625 6.882812 -1.285156 7.46875 -1.828125 C 8.050781 -2.367188 8.394531 -3.097656 8.5 -4.015625 L 4.796875 -4.015625 L 4.796875 -5 L 9.78125 -5 L 9.78125 -4.078125 C 9.707031 -3.304688 9.46875 -2.601562 9.0625 -1.96875 C 8.65625 -1.34375 8.117188 -0.84375 7.453125 -0.46875 C 6.785156 -0.101562 6.046875 0.078125 5.234375 0.078125 C 4.367188 0.078125 3.582031 -0.117188 2.875 -0.515625 C 2.164062 -0.921875 1.601562 -1.484375 1.1875 -2.203125 C 0.78125 -2.921875 0.578125 -3.734375 0.578125 -4.640625 C 0.578125 -5.546875 0.78125 -6.359375 1.1875 -7.078125 C 1.601562 -7.804688 2.164062 -8.375 2.875 -8.78125 C 3.582031 -9.1875 4.367188 -9.390625 5.234375 -9.390625 C 6.210938 -9.390625 7.082031 -9.144531 7.84375 -8.65625 C 8.601562 -8.164062 9.15625 -7.476562 9.5 -6.59375 Z M 8.046875 -6.59375 "/></g></g><g style="fill:#041f3f;fill-opacity:1;"><g transform="translate(175.405586, 89.026708)"><path style="stroke:none" d=""/></g></g><g style="fill:#041f3f;fill-opacity:1;"><g transform="translate(180.87609, 89.026708)"><path style="stroke:none" d="M 3.90625 -9.28125 C 4.925781 -9.28125 5.804688 -9.085938 6.546875 -8.703125 C 7.285156 -8.328125 7.851562 -7.789062 8.25 -7.09375 C 8.644531 -6.394531 8.84375 -5.570312 8.84375 -4.625 C 8.84375 -3.664062 8.644531 -2.835938 8.25 -2.140625 C 7.851562 -1.453125 7.285156 -0.921875 6.546875 -0.546875 C 5.804688 -0.179688 4.925781 0 3.90625 0 L 1.03125 0 L 1.03125 -9.28125 Z M 3.90625 -1 C 5.113281 -1 6.03125 -1.316406 6.65625 -1.953125 C 7.28125 -2.585938 7.59375 -3.476562 7.59375 -4.625 C 7.59375 -5.769531 7.273438 -6.664062 6.640625 -7.3125 C 6.015625 -7.96875 5.101562 -8.296875 3.90625 -8.296875 L 2.234375 -8.296875 L 2.234375 -1 Z M 3.90625 -1 "/></g></g><g style="fill:#041f3f;fill-opacity:1;"><g transform="translate(192.201725, 89.026708)"><path style="stroke:none" d="M 2.234375 -9.28125 L 2.234375 0 L 1.03125 0 L 1.03125 -9.28125 Z M 2.234375 -9.28125 "/></g></g><g style="fill:#041f3f;fill-opacity:1;"><g transform="translate(197.392788, 89.026708)"><path style="stroke:none" d="M 8.046875 -6.59375 C 7.796875 -7.132812 7.425781 -7.550781 6.9375 -7.84375 C 6.445312 -8.144531 5.878906 -8.296875 5.234375 -8.296875 C 4.585938 -8.296875 4.003906 -8.144531 3.484375 -7.84375 C 2.960938 -7.550781 2.550781 -7.125 2.25 -6.5625 C 1.957031 -6.007812 1.8125 -5.367188 1.8125 -4.640625 C 1.8125 -3.910156 1.957031 -3.269531 2.25 -2.71875 C 2.550781 -2.175781 2.960938 -1.753906 3.484375 -1.453125 C 4.003906 -1.160156 4.585938 -1.015625 5.234375 -1.015625 C 6.140625 -1.015625 6.882812 -1.285156 7.46875 -1.828125 C 8.050781 -2.367188 8.394531 -3.097656 8.5 -4.015625 L 4.796875 -4.015625 L 4.796875 -5 L 9.78125 -5 L 9.78125 -4.078125 C 9.707031 -3.304688 9.46875 -2.601562 9.0625 -1.96875 C 8.65625 -1.34375 8.117188 -0.84375 7.453125 -0.46875 C 6.785156 -0.101562 6.046875 0.078125 5.234375 0.078125 C 4.367188 0.078125 3.582031 -0.117188 2.875 -0.515625 C 2.164062 -0.921875 1.601562 -1.484375 1.1875 -2.203125 C 0.78125 -2.921875 0.578125 -3.734375 0.578125 -4.640625 C 0.578125 -5.546875 0.78125 -6.359375 1.1875 -7.078125 C 1.601562 -7.804688 2.164062 -8.375 2.875 -8.78125 C 3.582031 -9.1875 4.367188 -9.390625 5.234375 -9.390625 C 6.210938 -9.390625 7.082031 -9.144531 7.84375 -8.65625 C 8.601562 -8.164062 9.15625 -7.476562 9.5 -6.59375 Z M 8.046875 -6.59375 "/></g></g><g style="fill:#041f3f;fill-opacity:1;"><g transform="translate(209.66322, 89.026708)"><path style="stroke:none" d="M 2.234375 -9.28125 L 2.234375 0 L 1.03125 0 L 1.03125 -9.28125 Z M 2.234375 -9.28125 "/></g></g><g style="fill:#041f3f;fill-opacity:1;"><g transform="translate(214.854283, 89.026708)"><path style="stroke:none" d="M 6.734375 -9.28125 L 6.734375 -8.296875 L 4.203125 -8.296875 L 4.203125 0 L 3 0 L 3 -8.296875 L 0.453125 -8.296875 L 0.453125 -9.28125 Z M 6.734375 -9.28125 "/></g></g><g style="fill:#041f3f;fill-opacity:1;"><g transform="translate(223.970934, 89.026708)"><path style="stroke:none" d="M 6.515625 -2.0625 L 2.46875 -2.0625 L 1.71875 0 L 0.4375 0 L 3.796875 -9.21875 L 5.1875 -9.21875 L 8.53125 0 L 7.25 0 Z M 6.15625 -3.046875 L 4.484375 -7.734375 L 2.8125 -3.046875 Z M 6.15625 -3.046875 "/></g></g><g style="fill:#041f3f;fill-opacity:1;"><g transform="translate(234.857434, 89.026708)"><path style="stroke:none" d="M 2.234375 -0.984375 L 5.484375 -0.984375 L 5.484375 0 L 1.03125 0 L 1.03125 -9.28125 L 2.234375 -9.28125 Z M 2.234375 -0.984375 "/></g></g></g></svg>